<svg width="829" height="484" viewBox="0 0 829 484" fill="none" xmlns="http://www.w3.org/2000/svg">
<rect width="829" height="484" fill="white"/>
<g id="right-weel">
<path id="right-weel_2" d="M482.25 364.5C513.316 364.5 538.5 339.316 538.5 308.25C538.5 277.184 513.316 252 482.25 252C451.184 252 426 277.184 426 308.25C426 339.316 451.184 364.5 482.25 364.5Z" fill="#111111"/>
<path id="Vector" d="M484.25 320.866C491.864 320.866 498.037 314.693 498.037 307.079C498.037 299.465 491.864 293.292 484.25 293.292C476.636 293.292 470.463 299.465 470.463 307.079C470.463 314.693 476.636 320.866 484.25 320.866Z" fill="white"/>
</g>
<g id="left-weel">
<path id="left-wheel" d="M196.75 364.5C232.51 364.5 261.5 335.51 261.5 299.75C261.5 263.99 232.51 235 196.75 235C160.99 235 132 263.99 132 299.75C132 335.51 160.99 364.5 196.75 364.5Z" fill="black"/>
<path id="Vector_2" d="M200.25 314.449C209.015 314.449 216.12 307.344 216.12 298.579C216.12 289.814 209.015 282.709 200.25 282.709C191.485 282.709 184.38 289.814 184.38 298.579C184.38 307.344 191.485 314.449 200.25 314.449Z" fill="white"/>
</g>
<g id="bike">
<path id="Vector_3" d="M290.5 212.508H194.519L193.501 182.998C193.457 181.718 193.691 180.445 194.186 179.264C194.682 178.084 195.427 177.025 196.371 176.16C197.315 175.296 198.435 174.646 199.654 174.255C200.873 173.865 202.162 173.743 203.432 173.899L259.287 180.738H259.294C267.574 180.761 275.508 184.064 281.358 189.926C287.207 195.787 290.495 203.728 290.5 212.008V212.508Z" fill="#FF872E"/>
<path id="Vector_4" d="M247.721 107.829H180.779C179.889 107.829 179.007 108.004 178.184 108.345C177.362 108.685 176.615 109.184 175.985 109.814C175.355 110.444 174.856 111.191 174.516 112.014C174.175 112.836 174 113.718 174 114.608V181.55C174 182.44 174.175 183.322 174.516 184.145C174.856 184.967 175.355 185.715 175.985 186.344C176.615 186.974 177.362 187.473 178.184 187.814C179.007 188.154 179.889 188.329 180.779 188.329H247.721C248.611 188.329 249.493 188.154 250.316 187.814C251.138 187.473 251.886 186.974 252.515 186.344C253.145 185.715 253.644 184.967 253.984 184.145C254.325 183.322 254.5 182.44 254.5 181.55V114.608C254.5 113.718 254.325 112.836 253.984 112.014C253.644 111.191 253.145 110.444 252.515 109.814C251.886 109.184 251.138 108.685 250.316 108.345C249.493 108.004 248.611 107.829 247.721 107.829Z" fill="#CCCCCC"/>
<path id="Vector_5" d="M232.645 157.886L201.038 164.041C199.164 164.404 197.221 164.008 195.638 162.941C194.054 161.873 192.959 160.222 192.592 158.348L190.162 145.871C189.799 143.997 190.195 142.054 191.262 140.471C192.329 138.887 193.981 137.792 195.855 137.425L227.462 131.27C229.336 130.907 231.279 131.303 232.862 132.37C234.446 133.437 235.541 135.089 235.908 136.963L238.338 149.439C238.701 151.314 238.305 153.256 237.238 154.84C236.171 156.423 234.519 157.519 232.645 157.886Z" fill="#CC2621"/>
<path id="Vector_6" d="M226.321 143.146L202.201 147.844C201.759 147.93 201.302 147.837 200.93 147.585C200.557 147.334 200.299 146.945 200.213 146.504C200.127 146.063 200.22 145.606 200.471 145.233C200.723 144.86 201.112 144.603 201.553 144.517L225.673 139.819C226.115 139.734 226.572 139.826 226.945 140.078C227.317 140.329 227.575 140.718 227.661 141.159C227.747 141.6 227.654 142.057 227.403 142.43C227.151 142.803 226.762 143.061 226.321 143.146Z" fill="white"/>
<path id="Vector_7" d="M221.633 150.102L209.157 152.532C208.715 152.618 208.258 152.525 207.886 152.274C207.513 152.023 207.255 151.634 207.169 151.192C207.083 150.751 207.176 150.294 207.427 149.921C207.679 149.549 208.068 149.291 208.509 149.205L220.985 146.775C221.203 146.733 221.428 146.734 221.646 146.778C221.864 146.822 222.072 146.909 222.256 147.034C222.441 147.158 222.599 147.318 222.722 147.503C222.845 147.689 222.93 147.897 222.972 148.115C223.015 148.333 223.014 148.558 222.97 148.776C222.925 148.994 222.839 149.202 222.714 149.386C222.59 149.571 222.43 149.729 222.245 149.852C222.059 149.975 221.851 150.06 221.633 150.102Z" fill="white"/>
<path id="Vector_8" d="M254.5 114.608V123.505H174V114.608C174 113.718 174.175 112.836 174.516 112.014C174.856 111.191 175.355 110.444 175.985 109.814C176.615 109.184 177.362 108.685 178.184 108.345C179.007 108.004 179.889 107.829 180.779 107.829H247.721C248.611 107.829 249.493 108.004 250.316 108.345C251.138 108.685 251.885 109.184 252.515 109.814C253.145 110.444 253.644 111.191 253.984 112.014C254.325 112.836 254.5 113.718 254.5 114.608Z" fill="#B3B3B3"/>
<path id="Vector_9" d="M415.251 126.292C414.786 124.791 413.998 123.411 412.942 122.249C411.886 121.086 410.589 120.169 409.14 119.562C407.691 118.955 406.128 118.674 404.558 118.737C402.989 118.8 401.453 119.206 400.057 119.927L307.961 86.8841L303.905 109.891L395.708 135.137C397.075 137.4 399.224 139.084 401.749 139.869C404.274 140.653 406.999 140.485 409.408 139.394C411.817 138.304 413.742 136.368 414.819 133.953C415.896 131.538 416.05 128.812 415.251 126.292Z" fill="#FFB8B8"/>
<path id="Vector_10" opacity="0.2" d="M415.251 126.292C414.786 124.791 413.998 123.411 412.942 122.249C411.886 121.086 410.589 120.169 409.14 119.562C407.691 118.955 406.128 118.674 404.558 118.737C402.989 118.8 401.453 119.206 400.057 119.927L307.961 86.8841L303.905 109.891L395.708 135.137C397.075 137.4 399.224 139.084 401.749 139.869C404.274 140.653 406.999 140.485 409.408 139.394C411.817 138.304 413.742 136.368 414.819 133.953C415.896 131.538 416.05 128.812 415.251 126.292Z" fill="#CC2621"/>
<path id="Vector_11" d="M324.308 91.0764L315.611 113.797C315.363 114.443 314.979 115.029 314.485 115.513C313.991 115.998 313.398 116.371 312.747 116.606C312.096 116.84 311.402 116.932 310.712 116.875C310.022 116.817 309.353 116.612 308.75 116.272L287.614 104.376C284.314 103.091 281.658 100.55 280.229 97.3101C278.799 94.0701 278.713 90.3954 279.989 87.0918C281.264 83.7883 283.798 81.1253 287.034 79.6867C290.27 78.2482 293.944 78.1514 297.251 79.4176L320.853 84.6523C321.529 84.8024 322.165 85.0963 322.716 85.5141C323.268 85.932 323.724 86.4638 324.051 87.0734C324.379 87.6831 324.572 88.3562 324.616 89.047C324.66 89.7378 324.555 90.43 324.308 91.0764Z" fill="#FF872E"/>
<path id="Vector_12" d="M422.5 147.329L389.5 162.329L393.833 178.64C402.199 210.138 404.42 242.952 400.372 275.29L424.5 280.329L444.5 229.329L437.5 171.329L422.5 147.329Z" fill="#FF872E"/>
<path id="Vector_13" d="M487.25 222.829C465.568 222.829 447.898 238.591 447.041 258.329H527.459C526.602 238.591 508.932 222.829 487.25 222.829Z" fill="#CC2621"/>
<path id="Vector_14" d="M470.372 226.231C469.243 137.132 418.5 145.329 418.5 145.329C418.5 145.329 419.449 173.062 419.905 173.925C452.241 235.104 398.875 306.829 330.945 293.634C329.665 293.385 328.434 293.133 327.254 292.877C318.647 291.08 311.047 286.071 306.001 278.871C300.955 271.67 298.842 262.817 300.091 254.114C306.782 200.378 273.5 201.329 273.5 201.329H224.834L199.56 178.583C198.668 177.78 197.593 177.208 196.429 176.917C195.264 176.626 194.046 176.624 192.881 176.912C191.716 177.2 190.639 177.77 189.745 178.57C188.851 179.371 188.166 180.378 187.751 181.504L184.5 190.329C184.5 190.329 136.5 195.329 140.5 242.329H155.34C155.304 243.665 155.358 245.001 155.5 246.329L266.251 245.429C272.743 245.376 278.473 250.636 278.5 257.128C278.507 258.709 278.194 260.275 277.582 261.732C276.97 263.189 276.07 264.507 274.936 265.609C273.802 266.71 272.458 267.571 270.984 268.141C269.509 268.71 267.935 268.977 266.355 268.924L248.5 268.329C243 292.829 256.5 309.329 271.375 319.704C285.38 329.331 301.999 334.435 318.993 334.329H367.5C430.5 334.329 441.5 281.329 441.5 281.329C474.5 267.329 470.372 226.231 470.372 226.231Z" fill="#CC2621"/>
<path id="Vector_15" d="M389.594 166.761L377.72 134.512C377.101 132.831 376.82 131.045 376.891 129.255C376.963 127.465 377.386 125.707 378.137 124.081C378.888 122.455 379.952 120.993 381.268 119.778C382.584 118.563 384.126 117.62 385.807 117.001L419.847 104.47C422.804 103.381 425.947 102.885 429.096 103.01C432.245 103.136 435.339 103.881 438.2 105.202C441.061 106.523 443.634 108.395 445.772 110.71C447.909 113.026 449.57 115.739 450.659 118.697C451.641 121.351 452.143 124.159 452.14 126.989C452.127 130.583 451.314 134.128 449.759 137.368C448.205 140.608 445.948 143.461 443.152 145.719C441.133 147.339 438.863 148.619 436.432 149.508L389.594 166.761Z" fill="#CC2621"/>
<path id="Vector_16" d="M451.64 126.989C451.637 130.509 450.845 133.984 449.322 137.158C447.799 140.332 445.584 143.124 442.84 145.329C438.629 144.218 434.711 142.204 431.358 139.426C428.004 136.648 425.296 133.173 423.421 129.243C421.547 125.313 420.55 121.021 420.502 116.667C420.453 112.313 421.354 108 423.14 104.029C426.57 103.283 430.124 103.315 433.54 104.122C436.956 104.929 440.148 106.491 442.881 108.693C445.615 110.895 447.82 113.682 449.336 116.848C450.851 120.014 451.639 123.479 451.64 126.989Z" fill="#FF872E"/>
<path id="Vector_17" d="M149 248.829C156.732 248.829 163 241.218 163 231.829C163 222.44 156.732 214.829 149 214.829C141.268 214.829 135 222.44 135 231.829C135 241.218 141.268 248.829 149 248.829Z" fill="#FF872E"/>
<path id="Vector_18" d="M334.061 292.005H346.321L352.154 260.208L334.059 260.209L334.061 292.005Z" fill="#FFB8B8"/>
<path id="Vector_19" d="M330.934 288.003L355.078 288.001H355.079C357.099 288.001 359.1 288.399 360.967 289.173C362.834 289.946 364.53 291.079 365.959 292.508C367.387 293.937 368.521 295.633 369.294 297.5C370.067 299.366 370.465 301.367 370.465 303.388V303.888L330.935 303.889L330.934 288.003Z" fill="#CC2621"/>
<path id="Vector_20" d="M348.292 278.955C348.149 278.955 348.005 278.948 347.861 278.934L330.895 277.699C330.209 277.635 329.546 277.415 328.959 277.055C328.371 276.694 327.874 276.204 327.506 275.622C327.138 275.039 326.909 274.38 326.836 273.694C326.763 273.009 326.848 272.316 327.086 271.669L349.792 220.655C349.954 220.2 350.021 219.716 349.987 219.235C349.953 218.753 349.82 218.284 349.596 217.856C349.372 217.423 349.06 217.043 348.679 216.739C348.298 216.436 347.857 216.217 347.385 216.096C336.707 213.305 309.313 205.874 285.598 197.178C275.438 193.453 269.039 188.069 266.579 181.176C263.336 172.089 268.134 163.802 268.34 163.455L268.501 163.182L290.816 165.21L315.007 167.268L368.02 195.696C372.462 198.098 375.836 202.085 377.471 206.864C379.105 211.642 378.879 216.861 376.839 221.48L352.398 276.288C352.044 277.081 351.468 277.756 350.74 278.229C350.011 278.702 349.161 278.954 348.292 278.955Z" fill="#CC2621"/>
<path id="Vector_21" d="M294.696 64.2813C308.26 64.2813 319.257 53.2849 319.257 39.7202C319.257 26.1556 308.26 15.1592 294.696 15.1592C281.131 15.1592 270.135 26.1556 270.135 39.7202C270.135 53.2849 281.131 64.2813 294.696 64.2813Z" fill="#FFB8B8"/>
<path id="Vector_22" d="M327.061 295.005H339.321L345.154 263.208L327.059 263.209L327.061 295.005Z" fill="#FFB8B8"/>
<path id="Vector_23" d="M323.934 291.003L348.078 291.001H348.079C350.099 291.001 352.1 291.399 353.967 292.173C355.834 292.946 357.53 294.079 358.959 295.508C360.387 296.937 361.521 298.633 362.294 300.5C363.067 302.366 363.465 304.367 363.465 306.388V306.888L323.935 306.889L323.934 291.003Z" fill="#CC2621"/>
<path id="Vector_24" d="M341.292 281.955C341.149 281.955 341.005 281.948 340.861 281.934L323.895 280.699C323.209 280.635 322.546 280.415 321.959 280.055C321.371 279.694 320.874 279.204 320.506 278.622C320.138 278.039 319.909 277.38 319.836 276.694C319.763 276.009 319.848 275.316 320.086 274.669L342.792 223.655C342.954 223.2 343.021 222.716 342.987 222.235C342.953 221.753 342.82 221.284 342.596 220.856C342.372 220.423 342.06 220.043 341.679 219.739C341.298 219.436 340.857 219.217 340.385 219.096C329.707 216.305 302.313 208.874 278.598 200.178C268.438 196.453 262.039 191.069 259.579 184.176C256.336 175.089 261.134 166.802 261.34 166.455L261.501 166.182L283.816 168.21L308.007 170.268L361.02 198.696C365.462 201.098 368.836 205.085 370.471 209.864C372.105 214.642 371.879 219.861 369.839 224.48L345.398 279.288C345.044 280.081 344.468 280.756 343.74 281.229C343.011 281.702 342.161 281.954 341.292 281.955Z" fill="#CC2621"/>
<path id="Vector_25" d="M302.27 78.2084L276.27 69.2084C276.27 69.2084 259.948 81.7484 267.789 112.857C271.883 128.91 270.69 145.855 264.389 161.177C263.631 163.073 262.756 164.92 261.77 166.708C261.77 166.708 290.77 201.708 317.77 175.708L307.27 125.208C307.27 125.208 323.77 91.7084 302.27 78.2084Z" fill="#FF872E"/>
<path id="Vector_26" d="M297.745 65.1165C294.249 59.8842 291.491 52.629 295.339 47.6506C299.138 42.7365 306.632 43.4605 312.45 41.286C320.554 38.2573 325.254 28.7367 323.788 20.2103C322.322 11.684 315.478 4.61591 307.324 1.72388C299.17 -1.16815 289.976 -0.227596 281.991 3.10275C272.162 7.20245 263.73 15.133 260.194 25.179C256.658 35.225 258.548 47.2871 265.883 55.0086C273.747 63.287 286.089 65.4932 297.506 65.3593" fill="black"/>
<path id="Vector_27" d="M274.898 20.484C270.493 24.0698 263.773 22.4771 259.045 19.3301C254.316 16.183 250.479 11.7018 245.363 9.23442C236.344 4.88447 225.44 7.77619 216.662 12.5945C207.884 17.4129 200.103 24.0695 190.831 27.8507C181.558 31.6319 169.727 31.8188 162.706 24.6791C160.978 29.6849 160.837 35.1019 162.301 40.191C163.766 45.28 166.765 49.7933 170.889 53.115C175.013 56.4367 180.062 58.405 185.346 58.7514C190.631 59.0978 195.893 57.8054 200.416 55.0505C210.575 48.8621 216.187 35.8868 227.582 32.4712C233.887 30.5811 240.658 32.1034 247.031 33.7522C253.404 35.4011 260.049 37.1827 266.48 35.779C272.911 34.3753 278.927 28.5959 278.109 22.0643L274.898 20.484Z" fill="black"/>
<path id="Vector_28" d="M414.029 125.291C413.382 123.86 412.43 122.588 411.239 121.564C410.048 120.541 408.647 119.791 407.134 119.367C405.622 118.944 404.035 118.857 402.486 119.113C400.936 119.369 399.462 119.962 398.166 120.85L302.696 99.4225L301.51 122.754L395.727 136.48C397.362 138.558 399.703 139.963 402.305 140.431C404.908 140.898 407.591 140.394 409.847 139.015C412.103 137.636 413.775 135.477 414.546 132.948C415.316 130.418 415.132 127.694 414.029 125.291Z" fill="#FFB8B8"/>
<path id="Vector_29" d="M319.435 101.566L313.608 125.186C313.443 125.858 313.134 126.486 312.703 127.028C312.273 127.57 311.73 128.013 311.113 128.326C310.496 128.64 309.819 128.817 309.127 128.845C308.435 128.873 307.746 128.751 307.105 128.489L284.663 119.291C281.227 118.425 278.276 116.232 276.455 113.192C274.635 110.153 274.095 106.515 274.954 103.078C275.813 99.6402 278 96.6839 281.036 94.8573C284.072 93.0307 287.708 92.483 291.147 93.3344L315.215 95.617C315.904 95.6825 316.571 95.8958 317.17 96.2424C317.769 96.5889 318.287 97.0605 318.687 97.625C319.088 98.1896 319.362 98.8338 319.491 99.5139C319.62 100.194 319.601 100.894 319.435 101.566V101.566Z" fill="#FF872E"/>
<path id="Vector_30" d="M403 143.829C406.866 143.829 410 140.695 410 136.829C410 132.963 406.866 129.829 403 129.829C399.134 129.829 396 132.963 396 136.829C396 140.695 399.134 143.829 403 143.829Z" fill="#FF872E"/>
</g>
</svg>
